<?xml version="1.0" encoding="utf-8"?>
<!-- Generator: Adobe Illustrator 21.0.0, SVG Export Plug-In . SVG Version: 6.00 Build 0)  -->
<svg version="1.1" id="圖層_1" xmlns="http://www.w3.org/2000/svg" xmlns:xlink="http://www.w3.org/1999/xlink" x="0px" y="0px"
	 viewBox="0 0 388.2 344.5" style="enable-background:new 0 0 388.2 344.5;" xml:space="preserve">
<style type="text/css">
	.st0{fill:none;}
	.st1{fill:#CF5951;}
	.st2{fill:none;stroke:#CF5951;stroke-width:3.04;stroke-linecap:round;stroke-miterlimit:10;}
	.st3{fill:#172A88;}
</style>
<title>資產 7</title>
<rect x="7.1" y="-5.2" class="st0" width="376.1" height="351.8"/>
<g>
	<path class="st1" d="M55.3,23.4c1.1-0.4,2.3,0.2,2.7,1.4l0,0l3.6,11.8c0.3,1.1-0.3,2.3-1.4,2.7l-11.8,3.6c-1.1,0.3-2.3-0.3-2.7-1.4
		l0,0l-3.6-11.8c-0.3-1.1,0.3-2.3,1.4-2.7L55.3,23.4z"/>
	<path class="st1" d="M8.2,23.4c0.7-0.9,2.1-1.1,3-0.3l9.7,7.7c0.9,0.7,1.1,2.1,0.3,3l-7.7,9.7c-0.7,0.9-2.1,1.1-3,0.3l-9.7-7.7
		c-0.9-0.7-1-2.1-0.3-3L8.2,23.4z"/>
	<line class="st2" x1="42.8" y1="9.9" x2="44.7" y2="1.5"/>
	<line class="st2" x1="42.5" y1="59.6" x2="51" y2="60.8"/>
	<ellipse transform="matrix(0.4196 -0.9077 0.9077 0.4196 30.0267 59.6596)" class="st3" cx="61.7" cy="6.3" rx="2.3" ry="2.3"/>
	<ellipse transform="matrix(0.4195 -0.9078 0.9078 0.4195 4.6104 25.5811)" class="st3" cx="22.3" cy="9.2" rx="2.3" ry="2.3"/>
	<ellipse transform="matrix(0.4195 -0.9078 0.9078 0.4195 -20.7348 59.2099)" class="st3" cx="35.9" cy="45.8" rx="2.3" ry="2.3"/>
	<path class="st1" d="M340.6,308.8c-1-0.6-1.4-1.9-0.9-2.9l0,0l5.8-10.9c0.6-1,1.9-1.4,2.9-0.9l0,0l10.9,5.8
		c1.1,0.6,1.5,1.9,0.9,2.9l0,0l-5.8,11c-0.6,1-1.9,1.4-2.9,0.9L340.6,308.8z"/>
	<path class="st1" d="M374,342.1c-1.2,0.1-2.2-0.7-2.4-1.9l0,0l-1.4-12.3c-0.1-1.2,0.7-2.2,1.9-2.4l12.3-1.4
		c1.2-0.1,2.2,0.7,2.4,1.9l0,0l1.4,12.3c0.1,1.2-0.7,2.2-1.9,2.4L374,342.1z"/>
	<line class="st2" x1="340" y1="327.2" x2="332.8" y2="331.8"/>
	<line class="st2" x1="375.3" y1="292.2" x2="370.2" y2="285.4"/>
	
		<ellipse transform="matrix(0.9386 -0.3451 0.3451 0.9386 -89.2491 131.2593)" class="st3" cx="324.1" cy="316.3" rx="2.3" ry="2.3"/>
	<ellipse transform="matrix(0.9385 -0.3453 0.3453 0.9385 -96.384 143.2735)" class="st3" cx="354" cy="342.2" rx="2.3" ry="2.3"/>
	
		<ellipse transform="matrix(0.9385 -0.3453 0.3453 0.9385 -83.1336 146.6851)" class="st3" cx="370.2" cy="306.7" rx="2.3" ry="2.3"/>
</g>
</svg>
