<?xml version="1.0" encoding="utf-8"?>
<!-- Generator: Adobe Illustrator 21.0.0, SVG Export Plug-In . SVG Version: 6.00 Build 0)  -->
<svg version="1.1" id="圖層_1" xmlns="http://www.w3.org/2000/svg" xmlns:xlink="http://www.w3.org/1999/xlink" x="0px" y="0px"
	 viewBox="0 0 376.1 344.5" style="enable-background:new 0 0 376.1 344.5;" xml:space="preserve">
<style type="text/css">
	.st0{clip-path:url(#SVGID_2_);}
	.st1{fill:#CF5951;}
	.st2{fill:none;stroke:#CF5951;stroke-width:3.04;stroke-linecap:round;stroke-miterlimit:10;}
	.st3{fill:#172A88;}
</style>
<title>資產 7</title>
<g id="圖層_2">
	<g id="圖層_1-2">
		<g>
			<defs>
				<rect id="SVGID_1_" y="-5.2" width="376.1" height="351.8"/>
			</defs>
			<clipPath id="SVGID_2_">
				<use xlink:href="#SVGID_1_"  style="overflow:visible;"/>
			</clipPath>
			<g class="st0">
				<path class="st1" d="M48.2,23.4c1.1-0.4,2.3,0.2,2.7,1.4c0,0,0,0,0,0l3.6,11.8c0.3,1.1-0.3,2.3-1.4,2.7l-11.8,3.6
					c-1.1,0.3-2.3-0.3-2.7-1.4c0,0,0,0,0,0L35,29.7c-0.3-1.1,0.3-2.3,1.4-2.7L48.2,23.4z"/>
				<path class="st1" d="M1.1,23.4c0.7-0.9,2.1-1.1,3-0.3l9.7,7.7c0.9,0.7,1.1,2.1,0.3,3l-7.7,9.7c-0.7,0.9-2.1,1.1-3,0.3l-9.7-7.7
					c-0.9-0.7-1-2.1-0.3-3L1.1,23.4z"/>
				<line class="st2" x1="35.7" y1="9.9" x2="37.6" y2="1.5"/>
				<line class="st2" x1="35.4" y1="59.6" x2="43.9" y2="60.8"/>
				<ellipse transform="matrix(0.4196 -0.9077 0.9077 0.4196 25.9774 53.2667)" class="st3" cx="54.6" cy="6.3" rx="2.3" ry="2.3"/>
				<ellipse transform="matrix(0.4195 -0.9078 0.9078 0.4195 0.4765 19.2158)" class="st3" cx="15.3" cy="9.2" rx="2.3" ry="2.3"/>
				
					<ellipse transform="matrix(0.4195 -0.9078 0.9078 0.4195 -24.7919 52.7481)" class="st3" cx="28.8" cy="45.8" rx="2.3" ry="2.3"/>
				<path class="st1" d="M333.5,308.8c-1-0.6-1.4-1.9-0.9-2.9c0,0,0,0,0,0l5.8-10.9c0.6-1,1.9-1.4,2.9-0.9c0,0,0,0,0,0l10.9,5.8
					c1.1,0.6,1.5,1.9,0.9,2.9c0,0,0,0,0,0l-5.8,11c-0.6,1-1.9,1.4-2.9,0.9L333.5,308.8z"/>
				<path class="st1" d="M366.9,342.1c-1.2,0.1-2.2-0.7-2.4-1.9c0,0,0,0,0,0l-1.4-12.3c-0.1-1.2,0.7-2.2,1.9-2.4l12.3-1.4
					c1.2-0.1,2.2,0.7,2.4,1.9c0,0,0,0,0,0l1.4,12.3c0.1,1.2-0.7,2.2-1.9,2.4L366.9,342.1z"/>
				<line class="st2" x1="332.9" y1="327.2" x2="325.7" y2="331.8"/>
				<line class="st2" x1="368.2" y1="292.2" x2="363.1" y2="285.4"/>
				
					<ellipse transform="matrix(0.9386 -0.3451 0.3451 0.9386 -89.6944 128.8298)" class="st3" cx="317" cy="316.3" rx="2.3" ry="2.3"/>
				
					<ellipse transform="matrix(0.9385 -0.3453 0.3453 0.9385 -96.8114 140.8155)" class="st3" cx="346.9" cy="342.2" rx="2.3" ry="2.3"/>
				
					<ellipse transform="matrix(0.9385 -0.3453 0.3453 0.9385 -83.5556 144.2383)" class="st3" cx="363.1" cy="306.7" rx="2.3" ry="2.3"/>
			</g>
		</g>
	</g>
</g>
</svg>
