<?xml version="1.0" encoding="utf-8"?>
<!-- Generator: Adobe Illustrator 21.0.0, SVG Export Plug-In . SVG Version: 6.00 Build 0)  -->
<svg version="1.1" id="圖層_1" xmlns="http://www.w3.org/2000/svg" xmlns:xlink="http://www.w3.org/1999/xlink" x="0px" y="0px"
	 viewBox="0 0 375 373.3" style="enable-background:new 0 0 375 373.3;" xml:space="preserve">
<style type="text/css">
	.st0{clip-path:url(#SVGID_2_);}
	.st1{fill:#CF5951;}
	.st2{fill:#172A88;}
	.st3{fill:none;stroke:#CF5951;stroke-width:5;stroke-linecap:round;stroke-miterlimit:10;}
</style>
<title>資產 1</title>
<g id="圖層_2">
	<g id="圖層_1-2">
		<g>
			<defs>
				<rect id="SVGID_1_" y="-6.1" width="375" height="383.2"/>
			</defs>
			<clipPath id="SVGID_2_">
				<use xlink:href="#SVGID_1_"  style="overflow:visible;"/>
			</clipPath>
			<g class="st0">
				<path class="st1" d="M56.5,69c-1.1,0.9-2.8,0.7-3.7-0.5c0,0,0,0,0,0l-9.1-11.9c-0.9-1.1-0.7-2.8,0.4-3.7c0,0,0,0,0.1,0l11.9-9.1
					c1.1-0.9,2.8-0.7,3.7,0.5c0,0,0,0,0,0L69,56.2c0.9,1.1,0.7,2.8-0.4,3.7c0,0,0,0,0,0L56.5,69z"/>
				<path class="st1" d="M86.6,20.6c-0.3,1.4-1.6,2.3-3,2.1L68.7,20c-1.4-0.2-2.4-1.6-2.2-3c0,0,0,0,0-0.1l2.8-14.8
					c0.3-1.4,1.6-2.3,3-2.1l14.8,2.7c1.4,0.3,2.4,1.6,2.1,3.1L86.6,20.6z"/>
				<path class="st1" d="M17.2,46.2c0.2,1.4-0.7,2.7-2.1,3L0.4,52c-1.4,0.3-2.8-0.7-3-2.1c0,0,0,0,0,0l-2.8-14.8
					c-0.3-1.4,0.7-2.8,2.1-3.1c0,0,0,0,0,0l14.8-2.8c1.4-0.3,2.8,0.6,3.1,2c0,0,0,0.1,0,0.1L17.2,46.2z"/>
				
					<ellipse transform="matrix(7.741512e-02 -0.997 0.997 7.741512e-02 23.9499 129.4476)" class="st2" cx="81.9" cy="51.8" rx="4" ry="4"/>
				
					<ellipse transform="matrix(7.741512e-02 -0.997 0.997 7.741512e-02 -9.086 71.54)" class="st2" cx="34.1" cy="40.7" rx="4" ry="4"/>
				<line class="st3" x1="40.7" y1="24.5" x2="35.5" y2="11.4"/>
				<line class="st3" x1="22.5" y1="80.9" x2="29.8" y2="68.8"/>
				<path class="st1" d="M313.5,363.2c0.2,1.4-0.7,2.8-2.2,3c0,0,0,0,0,0l-14.9,2.2c-1.4,0.2-2.8-0.7-3-2.2c0,0,0,0,0,0l-2.2-14.9
					c-0.2-1.4,0.7-2.8,2.2-3c0,0,0,0,0,0l14.9-2.2c1.4-0.2,2.8,0.8,3,2.2c0,0,0,0,0,0L313.5,363.2z"/>
				<path class="st1" d="M352.3,328.7c-0.6,1.3-2.2,1.8-3.5,1.2c0,0,0,0,0,0l-13.5-6.6c-1.3-0.6-1.8-2.2-1.2-3.5l6.6-13.5
					c0.6-1.3,2.2-1.8,3.5-1.2c0,0,0,0,0,0l13.5,6.6c1.3,0.6,1.8,2.2,1.2,3.5L352.3,328.7z"/>
				
					<ellipse transform="matrix(7.741512e-02 -0.997 0.997 7.741512e-02 -74.9097 589.7739)" class="st2" cx="281.2" cy="335.4" rx="4" ry="4"/>
				
					<ellipse transform="matrix(7.741512e-02 -0.997 0.997 7.741512e-02 -37.1575 651.2664)" class="st2" cx="333.3" cy="345.7" rx="4" ry="4"/>
				<line class="st3" x1="366.4" y1="339" x2="378.5" y2="331.7"/>
				<line class="st3" x1="337.4" y1="370.8" x2="344.3" y2="358.5"/>
				<line class="st3" x1="302.4" y1="325.6" x2="297.2" y2="312.5"/>
			</g>
		</g>
	</g>
</g>
</svg>
