<?xml version="1.0" encoding="utf-8"?>
<!-- Generator: Adobe Illustrator 21.0.0, SVG Export Plug-In . SVG Version: 6.00 Build 0)  -->
<svg version="1.1" id="圖層_1" xmlns="http://www.w3.org/2000/svg" xmlns:xlink="http://www.w3.org/1999/xlink" x="0px" y="0px"
	 viewBox="0 0 66 40.3" style="enable-background:new 0 0 66 40.3;" xml:space="preserve">
<style type="text/css">
	.st0{fill:#C5564F;}
	.st1{fill:#192D78;}
</style>
<title>資產 3</title>
<path class="st0" d="M44,32.9L44,32.9c0-4.1,3.4-7.5,7.5-7.5c1.1,0,2.3,0.3,3.3,0.8c0.4,0.2,0.5,0.7,0.3,1l0,0
	c-0.2,0.4-0.7,0.6-1.1,0.4c-0.8-0.4-1.7-0.6-2.6-0.6c-3.2,0-5.7,2.6-5.7,5.7l0,0l0,0c0,3.2,2.6,5.9,5.8,5.9l0,0
	c0.9,0,1.7-0.2,2.5-0.6c0.4-0.2,0.8-0.1,1,0.3c0,0,0,0,0,0.1c0.2,0.4,0,0.9-0.5,1.1c-3.7,1.8-8.1,0.3-9.9-3.4
	C44.2,35.2,44,34.1,44,32.9z"/>
<path class="st1" d="M63.5,19.1L63.5,19.1v-3.8c0-0.7,0.6-1.3,1.3-1.4c0.6-0.1,1.2,0.4,1.3,1V15l0,0v3.8c0,0.7-0.6,1.3-1.3,1.4
	C64.2,20.3,63.6,19.8,63.5,19.1C63.5,19.2,63.5,19.2,63.5,19.1z"/>
<path class="st0" d="M44.1,7.7L44.1,7.7c0-4.2,3.5-7.7,7.7-7.7s7.5,3.4,7.5,7.5l0,0c0,2.8-1.5,5.4-4,6.8c-0.4,0.2-0.8,0.1-1.1-0.3
	l0,0c-0.2-0.4-0.1-0.9,0.3-1.2c1.9-1,3.1-3,3.1-5.1l0,0c0-3.3-2.7-6-6-6s-5.9,2.6-5.9,5.9l0,0l0,0C45.7,9.9,47,12,49,13
	c0.4,0.2,0.5,0.7,0.3,1.1l0,0c-0.2,0.4-0.7,0.6-1.1,0.4C45.7,13.2,44.1,10.6,44.1,7.7z"/>
<path class="st0" d="M59,33.5L59,33.5v-3.8c0-0.4,0.3-0.8,0.8-0.8c0.4,0,0.7,0.2,0.8,0.6v0.1l0,0v3.8c0,0.4-0.3,0.8-0.8,0.8
	C59.4,34.2,59.1,34,59,33.5C59,33.6,59,33.5,59,33.5z"/>
<path class="st0" d="M50.6,7.3c0-0.2,0.1-0.5,0.3-0.6c0.3-0.3,0.8-0.4,1.2-0.1l0,0l10.6,10.6c0.3,0.4,0.2,0.9-0.1,1.2
	c-0.3,0.3-0.8,0.3-1.1,0L50.8,7.8C50.7,7.7,50.6,7.5,50.6,7.3z"/>
<path class="st0" d="M50.9,17.9c0-0.2,0.1-0.5,0.3-0.6c0.3-0.3,0.8-0.4,1.2-0.1l0,0L63,27.8c0.3,0.3,0.3,0.8,0,1.2l0,0
	c-0.3,0.3-0.8,0.4-1.2,0.1l0,0L51.1,18.5C51,18.3,50.9,18.1,50.9,17.9z"/>
<path class="st0" d="M49.2,17.9L49.2,17.9c0-0.5,0.4-0.9,0.9-0.9h12c0.4,0,0.7,0.3,0.7,0.7v0.1c0,0.5-0.4,0.8-0.9,0.8h-12
	C49.6,18.7,49.2,18.3,49.2,17.9L49.2,17.9z"/>
<path class="st0" d="M50.6,32.9c0-0.2,0.1-0.5,0.3-0.6l7.1-6.8c0.3-0.3,0.8-0.3,1.1,0l0,0c0.3,0.3,0.3,0.9-0.1,1.2l-7.1,6.8
	c-0.3,0.3-0.8,0.3-1.2,0l0,0C50.7,33.3,50.6,33.1,50.6,32.9z"/>
<path class="st1" d="M48.8,19.8L48.8,19.8V16c0-0.4,0.3-0.8,0.8-0.8c0.4,0,0.7,0.2,0.8,0.6v0.1l0,0v3.8c0,0.4-0.3,0.8-0.8,0.8
	C49.2,20.5,48.9,20.3,48.8,19.8L48.8,19.8z"/>
</svg>
