<svg xmlns="http://www.w3.org/2000/svg" viewBox="0 0 31.65 233.17"><defs><style>.cls-1{font-size:21px;fill:#172a88;font-family:KozGoPr6N-Bold-83pv-RKSJ-H, Kozuka Gothic Pr6N;letter-spacing:0.1em;}.cls-2{fill:#c5564f;}.cls-3{fill:#192d78;}.cls-4{fill:none;}</style></defs><title>資產 5</title><g id="圖層_2" data-name="圖層 2"><g id="網頁版面"><text class="cls-1" transform="translate(8.48 67.93) rotate(90)">SCROLL</text><path class="cls-2" d="M3,43.77v0a9.92,9.92,0,0,1,2.87-7,9.6,9.6,0,0,1,6.9-2.9,9.43,9.43,0,0,1,4.25,1,1,1,0,0,1,.38,1.44,1.12,1.12,0,0,1-1.45.52,7.48,7.48,0,0,0-3.36-.8,7.33,7.33,0,0,0-5.28,2.2A7.56,7.56,0,0,0,5.1,43.57h0a7.68,7.68,0,0,0,7.6,7.73A7.36,7.36,0,0,0,16,50.56a1,1,0,0,1,1.38.48,1.18,1.18,0,0,1-.6,1.45,9.51,9.51,0,0,1-4.25,1A9.64,9.64,0,0,1,3,43.77Z"/><path class="cls-3" d="M28.35,25.56h0v-5A1.85,1.85,0,0,1,30,18.75a1.49,1.49,0,0,1,1.64,1.52h0v5A1.84,1.84,0,0,1,30,27.08,1.49,1.49,0,0,1,28.35,25.56Z"/><path class="cls-2" d="M3.21,10.44v0A10.14,10.14,0,0,1,6.14,3.29a9.81,9.81,0,0,1,16.84,7,0,0,0,0,1,0,0,10.18,10.18,0,0,1-5.26,8.9,1,1,0,0,1-1.41-.41,1.16,1.16,0,0,1,.53-1.48,7.8,7.8,0,0,0,4-6.83h0a7.92,7.92,0,0,0-7.83-8A7.57,7.57,0,0,0,7.58,4.76a7.8,7.8,0,0,0-2.24,5.49h0a8,8,0,0,0,4.28,7.1A1,1,0,0,1,10,18.8a1.12,1.12,0,0,1-1.46.5A9.93,9.93,0,0,1,3.21,10.44Z"/><path class="cls-2" d="M22.51,44.55h0v-5a1.11,1.11,0,0,1,1-1.09.89.89,0,0,1,1,.92h0v5a1.1,1.1,0,0,1-1,1.09A.9.9,0,0,1,22.51,44.55Z"/><path class="cls-2" d="M11.64,10A1.18,1.18,0,0,1,12,9.14a1,1,0,0,1,1.5-.07l13.77,14a1.1,1.1,0,0,1-.07,1.53,1,1,0,0,1-1.5.07l-13.77-14A1,1,0,0,1,11.64,10Z"/><path class="cls-2" d="M12,24a1.18,1.18,0,0,1,.34-.82,1,1,0,0,1,1.5-.07l13.77,14a1.1,1.1,0,0,1-.07,1.53,1,1,0,0,1-1.5.07l-13.77-14A1,1,0,0,1,12,24Z"/><path class="cls-2" d="M9.83,24a.53.53,0,0,1,0-.1A1.19,1.19,0,0,1,11,22.79l15.57,0a1,1,0,0,1,1,1.08A1.19,1.19,0,0,1,26.37,25L10.8,25A1,1,0,0,1,9.83,24Z"/><path class="cls-2" d="M11.56,43.77a1.19,1.19,0,0,1,.36-.85l9.24-9a1,1,0,0,1,1.5,0,1.11,1.11,0,0,1-.1,1.53l-9.24,9a1,1,0,0,1-1.5,0A1,1,0,0,1,11.56,43.77Z"/><path class="cls-3" d="M9.29,26.46h0v-5a1.11,1.11,0,0,1,1-1.09.9.9,0,0,1,1,.91h0v5a1.11,1.11,0,0,1-1,1.08A.89.89,0,0,1,9.29,26.46Z"/><rect class="cls-4" x="2.97" width="28.67" height="233.17"/></g></g></svg>